<?xml version="1.0" encoding="utf-8" ?><svg xmlns="http://www.w3.org/2000/svg" xmlns:xlink="http://www.w3.org/1999/xlink" width="1024" height="1024" viewBox="0 0 1024 1024"><path fill="#FDFCFB" d="M0 0L1024 0L1024 1024L0 1024L0 0Z"/><path d="M597.399 151.158C600.997 150.772 604.843 150.778 608.431 151.26C619.165 152.703 628.492 158.669 634.977 167.273C646.396 182.422 659.579 229.036 661.186 248.456C661.632 253.839 661.06 258.893 660.282 264.222C666.117 270.282 672.818 276.999 678.246 283.335C695.231 303.364 708.519 326.254 717.49 350.936C734.481 397.226 733.881 452.465 712.712 497.169C688.162 549.011 648.965 579.092 596.396 598.321C600.385 602.145 604.653 605.731 608.778 609.737C629.381 629.745 642.21 649.743 656.515 674.256C661.642 664.235 665.014 653.699 666.562 642.548C669.041 624.697 668.186 611.559 681.534 597.522C689.974 588.507 701.7 583.287 714.046 583.049C725.804 582.876 737.156 587.342 745.644 595.479C782.656 631.156 745.896 713.912 714.817 743.999C678.603 779.056 643.147 790.061 594.251 790.726C593.575 802.703 593.766 815.006 593.427 827.006C593.265 832.77 593.416 840.343 592.43 845.907C591.713 850.117 590.216 854.157 588.017 857.819C583.583 864.999 576.448 870.094 568.217 871.957C561.133 873.554 505.335 873.602 497.787 872.325C492.945 871.506 489.279 869.705 485.148 867.158C483.096 868.489 480.92 869.518 478.736 870.623C463.738 875.481 440.604 871.704 424.595 872.874C419.278 873.263 407.577 873.101 402.615 872.198C397.621 871.3 392.898 869.275 388.805 866.278C382.313 861.391 378.025 854.129 376.88 846.084C375.769 837.743 377.988 829.3 383.055 822.583C389.291 814.415 396.683 811.119 406.598 809.737C406.772 788.908 405.667 768.087 403.287 747.393C396.13 755.271 388.234 760.303 377.355 761.138C367.439 761.89 357.628 758.694 350.058 752.246C333.096 737.532 335.916 720.643 342.76 701.853C356.742 663.472 377.535 630.688 404.682 600.413C399.096 599.016 393.269 596.596 387.795 594.771C307.769 568.09 257.593 492.355 262.428 408.196C265.915 347.491 293.138 298.86 337.957 258.238C337.08 252.594 336.487 246.581 338.193 240.721C345.647 215.118 358.759 187.843 374.096 166.017C376.424 162.704 381.36 158.624 384.653 156.639C393.49 151.406 404.058 149.941 413.985 152.573C428.546 156.313 436.226 166.529 444.907 177.832C453.425 188.921 461.795 199.63 469.018 211.676C493.43 210.665 510.445 210.558 534.928 214.543C537.475 209.755 546.043 197.138 549.532 192.654C563.259 175.012 573.794 155.099 597.399 151.158Z"/><path fill="#F763A6" d="M539.328 215.183C545.655 203.894 568.719 171.859 578.227 163.924C582.585 160.251 587.666 157.535 593.141 155.951C602.275 153.418 612.042 154.636 620.274 159.335C631.97 166.045 636.619 175.258 641.063 187.519C645.563 199.932 649.73 212.407 652.964 225.212C656.352 238.622 660.173 252.156 655.521 265.535C696.002 302.05 722.555 353.912 725.43 408.618C728.415 457.757 711.304 506.001 678.023 542.278C656.149 566.498 623.856 586.115 592.706 595.833C579.823 588.256 567.403 588.762 557.622 601.326C556.853 602.314 557.031 602.841 557.306 603.84C558.807 604.942 557.998 604.746 559.802 604.497C562.146 602.708 562.724 601.283 564.515 599.388C567.816 595.895 575.068 594.254 579.637 594.928C595.777 597.31 619.63 626.185 629.61 639.367C645.867 660.839 662.894 691.645 670.128 717.69C670.753 719.942 670.56 725.126 670.225 727.467C668.934 736.893 663.872 745.391 656.199 751.015C641.723 761.716 616.81 760.204 606.652 745.126C599.016 733.791 592.307 713.267 587.139 700.226C581.57 686.562 575.738 673.006 569.647 659.566C567.936 655.852 563.74 645.137 560.878 643.353C559.327 643.358 560.047 643.139 558.725 644.247C558.337 646.228 560.198 649.098 561.095 650.864C575.831 679.863 586.075 711.382 599.451 740.938C585.13 761.411 591.798 819.479 588.572 844.407C586.992 856.62 578.622 866.116 566.019 868.626C557.287 869.375 546.827 869.742 538.176 869.367C525.952 868.836 510.464 870.467 498.802 868.719C471.679 864.654 467.322 827.323 491.598 815.758C496.165 813.582 507.995 814.155 508.916 811.425C508.237 809.182 505.694 809.788 503.534 809.796L503.423 778.432C478.004 780.445 451.563 776.721 430.273 761.663L430.023 763.01C443.412 774.912 459.148 780.997 475.836 786.468C484.365 789.265 492.783 792.24 497.876 800.126C498.273 803.354 498.263 806.789 498.339 810.052C492.021 811.654 487.886 813.205 482.846 817.578C476.385 823.092 472.405 830.966 471.797 839.438C471.09 849.861 475.153 857.123 481.737 864.671C479.103 866.138 474.785 868.222 471.722 868.582C464.956 869.378 457.925 869.171 451.082 869.139C436.88 869.074 422.621 869.267 408.423 868.942C400.133 868.752 392.884 866.173 387.351 859.781C382.203 853.934 379.712 846.214 380.469 838.461C381.836 824.465 394.934 813 408.641 813.464C410.649 813.532 415.631 814.073 416.99 812.965C417.241 811.158 417.447 811.922 416.658 810.539C415.012 809.708 412.642 810.019 410.711 810.07C410.526 789.248 410.273 766.802 407.106 746.167C405.681 736.884 398.826 726.151 396.719 715.395C390.354 682.91 401.513 641.485 411.954 610.932C422.833 613.22 439.368 613.448 450.592 613.696C468.822 614.099 486.962 614.087 505.164 612.912C504.514 611.073 503.059 611.794 500.99 611.563C467.313 610.694 446.264 608.392 413.743 599.067C375.403 588.074 343.186 574.124 315.194 544.777C282.242 509.696 264.571 462.965 266.067 414.858C267.621 355.877 292.952 305.343 335.709 265.611C337.827 263.643 340.366 261.344 342.388 259.322C341.398 255.259 340.387 249.476 341.331 245.182C346.477 221.77 359.396 197.462 371.305 176.916C377.122 166.88 384.553 158.901 395.667 156.222C405.104 153.942 415.061 155.546 423.305 160.675C435.139 168.152 456.09 199.071 465.387 211.993C441.806 214.286 421.399 217.604 398.99 225.839C395.391 227.162 388.414 229.032 386.083 231.829L386.073 232.799C388.349 234.825 391.028 233.009 393.596 231.957C445.639 210.645 503.538 211.339 557.951 221.974C561.823 222.731 569.774 225.049 573.386 224.467C574.521 219.352 546.177 215.949 541.499 215.407C540.777 215.32 540.053 215.246 539.328 215.183Z"/><path fill="#480E1E" d="M500.99 611.563C505.396 611.344 509.579 611.64 513.844 611.516C513.169 611.854 512.619 612.187 511.971 612.567C509.094 612.379 507.55 613.041 505.164 612.912C504.514 611.073 503.059 611.794 500.99 611.563Z"/><path fill="#DA4D8D" d="M513.844 611.516C514.857 611.328 517.153 610.864 518.125 611.291C518.093 612.203 512.826 612.462 511.971 612.567C512.619 612.187 513.169 611.854 513.844 611.516Z"/><path fill="#480E1E" d="M430.023 763.01C429.465 762.555 427.343 761.014 427.367 760.261C427.982 759.732 429.789 761.32 430.273 761.663L430.023 763.01Z"/><path d="M323.103 326.999C326.999 327.166 328.333 328.328 329.755 331.913C333.273 340.778 336.416 343.84 345.009 347.673C350.834 344.643 355.608 342.483 362.067 340.96C377.152 337.265 393.09 339.812 406.272 348.025C420.123 356.691 429.856 370.615 433.236 386.599C436.909 403.254 432.952 418.939 424.002 433.127C449.293 421.688 485.876 423.418 508.562 440.333C521.224 449.773 525.179 465.888 514.102 478.443C503.581 490.368 487.573 495.929 472.101 497.415C459.107 499.194 443.891 497.643 431.482 493.426C413.197 487.214 394.479 474.536 402.538 452.394C361.602 472.526 316.519 442.421 316.602 397.993C316.617 390.048 318.77 383.244 321.236 375.836C311.864 372.506 294.472 365.746 296.192 352.877C296.505 350.532 298.062 348.563 300.508 348.334C307.549 347.674 307.637 354.046 311.609 357.857C315.523 361.203 321.665 363.873 326.505 365.733C329.205 362.294 331.832 358.798 334.385 355.248C326.54 350.407 308.031 334.299 323.103 326.999Z"/><path fill="#FDFCFB" d="M368.599 344.028C399.037 340.144 426.835 361.74 430.599 392.193C434.362 422.647 412.658 450.36 382.19 454.003C351.891 457.627 324.365 436.069 320.622 405.784C316.879 375.5 338.329 347.889 368.599 344.028Z"/><path d="M372.49 361.163C390.832 359.045 405.175 376.14 408.097 392.797C410.827 408.205 405.734 426.128 391.991 434.833C384.943 439.298 378.033 439.107 370.355 437.183C356.448 431.426 351.385 420.118 350.789 405.839C357.531 401.44 364.472 398.425 372.035 393.36C365.339 388.801 358.36 385.179 351.608 380.716C354.122 368.672 360.25 362.969 372.49 361.163Z"/><path fill="#FDFCFB" d="M456.76 428.219C474.051 427.555 495.337 431.72 508.831 443.191C520.077 452.752 522.079 467.904 511.038 478.775C498.487 491.134 481.244 495.214 464.125 495.73C446.949 496.766 425.131 492.031 411.855 480.604C401.061 470.897 399.229 456.799 409.535 446.008C422.126 432.824 439.187 428.95 456.76 428.219Z"/><path d="M449.482 440.217C457.556 440.08 465.929 441.179 472.882 445.654C474.66 446.308 471.699 449.283 471.513 449.243C462.462 447.255 439.943 439.511 436.228 453.311C434.334 460.348 445.177 465.584 451.5 466.486C456.131 467.146 457.66 466.992 462.319 466.388C466.688 465.297 469.069 463.537 472.957 461.53C473.987 460.999 476.876 464.022 475.326 465.318C464.113 474.687 447.907 473.389 436.295 465.437C429.378 460.7 429.018 452.06 433.912 445.713C437.583 441.059 443.952 440.647 449.482 440.217Z"/><path d="M609.993 326.986C610.746 326.946 611.501 326.95 612.254 326.998C618.237 327.396 620.058 332.028 617.868 337.124C613.929 346.287 607.123 352.545 598.669 357.401C601.073 360.334 602.52 362.226 604.607 365.379C613.551 363.138 617.185 361.731 623.318 354.255C624.747 352.513 626.354 350.799 628.357 349.725C634.423 349.112 637.685 355.254 635.101 360.003C630.405 368.634 618.768 372.689 609.937 375.62C625.925 417.436 598.92 458.73 553.637 458.615C543.699 458.516 532.41 454.647 524.112 449.276C510.81 440.748 501.455 427.271 498.117 411.827C494.856 395.701 498.103 378.94 507.149 365.198C524.951 338.415 560.612 331.29 587.428 349.063C592.771 346.252 597.341 343.747 601.233 339.006C605.266 334.093 604.658 330.105 609.993 326.986Z"/><path fill="#FDFCFB" d="M553.446 343.647C584.011 342.382 609.829 366.104 611.149 396.667C612.47 427.23 588.794 453.091 558.233 454.466C527.595 455.845 501.654 432.095 500.33 401.454C499.006 370.813 522.803 344.915 553.446 343.647Z"/><path d="M555.15 361.181C570.28 360.924 578.306 368.892 585.147 381.6C598.243 405.933 580.832 449.233 548.115 436.203C536.052 429.542 532.421 419.225 531.327 406.183C538.672 401.771 545.844 398.053 553.428 393.348C550.381 391.466 532.091 381.791 532.46 378.873C533.74 368.735 545.752 362.107 555.15 361.181Z"/><path d="M535.399 489.659C540.571 489.221 544.769 489.682 549.245 492.543C565.47 502.915 556.634 524.443 548.515 536.756C519.507 580.756 452.957 580.117 412.766 553.081C399.608 543.883 386.615 529.173 382.783 513.162C379.317 498.676 394.856 486.397 408.527 491.403C439.526 502.752 473.789 504.462 506.084 498.264C515.949 496.373 524.986 491.382 535.399 489.659Z"/><path fill="#FDFCFB" d="M495.984 517.704C513.697 517.242 530.891 523.706 543.913 535.721C530.07 557.307 505.916 565.143 481.723 567.417C462.767 567.987 450.672 565.557 433.178 559.357C435.33 554.32 440.048 547.376 443.724 543.334C458.693 526.873 474.152 519.212 495.984 517.704Z"/><path fill="#FAA3CC" d="M392.343 167.052C395.3 167.326 397.699 168.294 397.915 171.759C397.994 175.416 394.468 177.199 392.288 179.638C386.481 186.135 382.567 194.192 377.564 201.033C365.91 205.628 378.991 179.746 380.647 177.315C384.466 171.707 385.609 168.865 392.343 167.052Z"/><path fill="#FAA3CC" d="M591.248 163.562C597.808 164.729 600.947 169.854 594.498 173.753C585.824 178.998 581.497 183.623 574.298 190.156C571.442 192.317 568.469 187.71 568.546 187.258C570.026 178.493 584.531 165.531 591.248 163.562Z"/><path fill="#FAA3CC" d="M563.298 190.958C567.573 190.782 572.961 192.629 568.706 197.195L568.08 197.897C562.67 199.606 560.402 195.212 563.298 190.958Z"/><path fill="#FAA3CC" d="M369.708 204.71C370.94 204.065 372.429 204.158 373.571 204.952C374.714 205.746 375.32 207.109 375.145 208.489C374.971 209.869 374.043 211.038 372.739 211.522C370.891 212.207 368.829 211.339 368.027 209.538C367.226 207.738 367.962 205.624 369.708 204.71Z"/><path fill="#F763A6" d="M710.254 587.132C722.308 586.58 732.722 589.197 741.955 597.322C750.541 604.877 756.69 618.416 756.916 629.911C757.671 668.344 742.369 707.711 716.912 736.098C688.219 768.094 652.68 783.921 610.428 786.12C604.864 786.498 599.861 786.44 594.295 786.408C594.423 770.85 595.094 758.915 601.57 744.611C606.247 751.622 611.427 755.863 619.381 758.873C629.713 762.867 641.212 762.57 651.325 758.05C660.778 753.778 668.449 745.968 672.046 736.198C677.2 722.2 672.91 711.573 667.648 698.476C664.864 691.515 661.882 684.636 658.706 677.845C665.065 667.44 668.812 654.188 670.454 642.208C672.382 628.147 671.524 616.727 680.583 604.708C688.382 594.361 697.512 589.045 710.254 587.132Z"/><path fill="#F763A6" d="M409.029 601.768C409.653 602.141 410.337 602.292 410.026 603.47C408.694 608.516 406.678 614.363 405.095 619.219C402.662 626.52 400.517 633.914 398.665 641.383C392.886 664.298 387.06 694.521 392.939 717.564C394.925 725.35 399.065 734.369 402.027 742.101C398.292 748.381 392.507 753.182 385.646 755.697C376.117 759.238 367.098 757.724 358.129 753.578C348.496 747.497 341.392 737.674 341.058 725.99C340.819 717.638 344.527 708.041 347.433 700.233C361.115 663.593 382.068 630.1 409.029 601.768Z"/></svg>
